<svg id="Capa_2" data-name="Capa 2" xmlns="http://www.w3.org/2000/svg" viewBox="0 0 435.8 405.75"><defs><style>.cls-1{font-size:92px;stroke:#678fbe;font-family:Roboto-Black, Roboto;}.cls-1,.cls-5{fill:#678fbe;}.cls-1,.cls-4{stroke-miterlimit:10;}.cls-2{letter-spacing:-0.01em;}.cls-3{letter-spacing:-0.02em;}.cls-4{fill:none;stroke:#7996c9;stroke-width:13px;}</style></defs><title>logo_idtory</title><text class="cls-1" transform="translate(-455.35 479.73)"><tspan xml:space="preserve"> ID-</tspan><tspan class="cls-2" x="151.52" y="0">T</tspan><tspan x="208.26" y="0">O</tspan><tspan class="cls-3" x="271.78" y="0">R</tspan><tspan x="329.64" y="0">Y</tspan></text><path class="cls-4" d="M52.79,86.62H48.16a2.47,2.47,0,0,1-2.47-2.47v-60a7.1,7.1,0,0,1,7.1-7.1h0c1.36,0,2.47,12,2.47,13.34V84.15A2.47,2.47,0,0,1,52.79,86.62Z"/><path class="cls-4" d="M78-12.94h0a7.26,7.26,0,0,1,7.26,7.26v60a2.3,2.3,0,0,1-2.3,2.3H78a2.3,2.3,0,0,1-2.3-2.3v-65a2.3,2.3,0,0,1,2.3-2.3Z" transform="translate(58.64 102.31) rotate(-90)"/><path class="cls-4" d="M388,86.86h4.63a2.47,2.47,0,0,0,2.47-2.47v-60a7.1,7.1,0,0,0-7.1-7.1h0c-1.36,0-2.47,12-2.47,13.34V84.39A2.47,2.47,0,0,0,388,86.86Z"/><path class="cls-4" d="M357.86-12.7h5a2.3,2.3,0,0,1,2.3,2.3v60a7.26,7.26,0,0,1-7.26,7.26h0a2.3,2.3,0,0,1-2.3-2.3v-65a2.3,2.3,0,0,1,2.3-2.3Z" transform="translate(338.26 382.41) rotate(-90)"/><path class="cls-4" d="M49.62,301.56H45A2.47,2.47,0,0,0,42.52,304v60a7.1,7.1,0,0,0,7.1,7.1h0c1.36,0,2.47-12,2.47-13.34V304A2.47,2.47,0,0,0,49.62,301.56Z"/><path class="cls-4" d="M74.83,331.56h5a2.3,2.3,0,0,1,2.3,2.3v60a7.26,7.26,0,0,1-7.26,7.26h0a2.3,2.3,0,0,1-2.3-2.3v-65a2.3,2.3,0,0,1,2.3-2.3Z" transform="translate(443.65 289.03) rotate(90)"/><path class="cls-4" d="M384.85,302.32h4.63a2.47,2.47,0,0,1,2.47,2.47v60a7.1,7.1,0,0,1-7.1,7.1h0c-1.36,0-2.47-12-2.47-13.34V304.79A2.47,2.47,0,0,1,384.85,302.32Z"/><path class="cls-4" d="M354.69,332.32h0a7.26,7.26,0,0,1,7.26,7.26v60a2.3,2.3,0,0,1-2.3,2.3h-5a2.3,2.3,0,0,1-2.3-2.3v-65a2.3,2.3,0,0,1,2.3-2.3Z" transform="translate(724.27 9.94) rotate(90)"/><rect class="cls-5" x="175.86" y="116.38" width="95.37" height="5.8"/><path class="cls-5" d="M271.22,114.67H175.86l7.5,7.5v-5.8l-7.5,7.5h95.37l-7.5-7.5v5.8c0,9.65,15,9.67,15,0v-5.8a7.61,7.61,0,0,0-7.5-7.5H175.86a7.61,7.61,0,0,0-7.5,7.5v5.8a7.61,7.61,0,0,0,7.5,7.5h95.37C280.88,129.67,280.89,114.67,271.22,114.67Z"/><rect class="cls-5" x="222.2" y="117.47" width="10.27" height="94.29"/><path class="cls-5" d="M229.7,211.77V117.47l-7.5,7.5h10.27l-7.5-7.5v94.29l7.5-7.5H222.2c-9.65,0-9.67,15,0,15h10.27a7.61,7.61,0,0,0,7.5-7.5V117.47a7.61,7.61,0,0,0-7.5-7.5H222.2a7.61,7.61,0,0,0-7.5,7.5v94.29C214.7,221.42,229.7,221.43,229.7,211.77Z"/><ellipse class="cls-5" cx="307.73" cy="99.79" rx="10.57" ry="9.51"/><path class="cls-5" d="M310.79,99.79c-.17,2.73-6.14,2.74-6.14,0s6-2.73,6.14,0c.61,9.59,15.62,9.65,15,0a17.89,17.89,0,0,0-18.07-17c-9.35,0-18.07,7.34-18.07,17,0,9.49,8.33,16.64,17.45,17a17.89,17.89,0,0,0,18.68-17C326.41,90.16,311.41,90.19,310.79,99.79Z"/><ellipse class="cls-5" cx="140.06" cy="99.79" rx="10.57" ry="9.51"/><path class="cls-5" d="M143.13,99.79c-.17,2.73-6.14,2.74-6.14,0s6-2.73,6.14,0c.61,9.59,15.62,9.65,15,0a17.89,17.89,0,0,0-18.07-17c-9.35,0-18.07,7.34-18.07,17,0,9.49,8.33,16.64,17.45,17a17.89,17.89,0,0,0,18.68-17C158.75,90.15,143.74,90.18,143.13,99.79Z"/><path class="cls-5" d="M331.1,208.9c7.49,49.07-45.32,101-104.12,101S113.2,259.54,121.62,210.55c2.7-15.69,48.71-1.65,107.51-1.65S328.75,193.51,331.1,208.9Z"/><path class="cls-5" d="M323.87,210.89c4.82,33.92-22.06,64.7-50.07,79.56C239.9,308.44,199.74,305,168,284c-14.53-9.6-27.19-23-34.36-39a60.21,60.21,0,0,1-5.33-21.92,64.1,64.1,0,0,1,.54-10.57c.05-.4-.05-1.53,0-.54s-.3,0,.28-.38c-1.27.91-.65.77-.24.43,1.19-1-1.2.66.13,0,1.59-.83-1.1.36,0-.07a12.5,12.5,0,0,1,1.49-.48c.63-.16,2.68-.57,2.48-.54a70.28,70.28,0,0,1,8.28-.3c7.9.11,15.79.91,23.64,1.67,21.35,2,42.69,4.11,64.16,4.1,23,0,45.75-2.76,68.57-5.37,7.22-.83,14.62-1.82,21.91-1.39l1.46.11c1.9.18-.93-.26.65.11l1.73.43c1.51.4-1.35-.31.18,0a3.28,3.28,0,0,1,.84.5c-1.74-2-.2-.06-.15,0-1-2-.57.38-.61-.89s.1.6.16.93c1.74,9.48,16.2,5.46,14.46-4-2.4-13.05-18.78-12.78-28.89-12-20.65,1.51-41.09,5-61.8,6-25.22,1.29-50.34-.48-75.44-2.91-9.23-.9-18.48-1.93-27.76-2.28-6.26-.24-13.07-.35-19.08,1.67-16,5.37-13.16,27.13-10,40.14,4.56,19,16.52,36,31.07,48.72,32.89,28.81,80.12,39.56,121.34,23.36,40.95-16.1,77.19-56.21,70.58-102.7-.57-4-5.68-6.23-9.23-5.24C324.8,202.87,323.29,206.85,323.87,210.89Z"/></svg>